<svg xmlns="http://www.w3.org/2000/svg" width="560" height="60" viewBox="0 0 560 60" fill="none" font-family="'Segoe UI', Arial, sans-serif">
  <rect x="3" y="3" width="554" height="54" rx="12" fill="#ee3a3a" stroke="#0b0b0f" stroke-width="4"/>
  <rect x="18" y="14" width="32" height="32" rx="7" fill="#0b0b0f"/>
  <g transform="translate(23 19) scale(0.92)" fill="none" stroke="#ee3a3a" stroke-width="2" stroke-linecap="round" stroke-linejoin="round"><path d="M4.5 16.5c-1.5 1.26-2 5-2 5s3.74-.5 5-2c.71-.84.7-2.13-.09-2.91a2.18 2.18 0 0 0-2.91 0z"/><path d="m12 15-3-3a22 22 0 0 1 2-3.95A12.88 12.88 0 0 1 22 2c0 2.72-.78 7.5-6 11a22.35 22.35 0 0 1-4 2z"/></g>
  <text x="66" y="39" font-size="26" font-weight="900" letter-spacing="0.5" fill="#0b0b0f">DEPLOY ON RAILWAY</text>
</svg>